<?xml version="1.0" encoding="UTF-8"?>
<svg width="32" height="32" viewBox="0 0 32 32" fill="none" xmlns="http://www.w3.org/2000/svg">
  <!-- Background circle with new gradient -->
  <circle cx="16" cy="16" r="16" fill="url(#bgGradient)"/>
  
  <!-- World map simplified lines -->
  <path d="M16 8C20.4183 8 24 11.5817 24 16C24 20.4183 20.4183 24 16 24C11.5817 24 8 20.4183 8 16C8 11.5817 11.5817 8 16 8Z" 
        stroke="rgba(255,255,255,0.3)" stroke-width="1"/>
  
  <!-- Compass design -->
  <circle cx="16" cy="16" r="6" fill="url(#compassGradient)" class="compass"/>
  
  <!-- Compass points -->
  <path d="M16 11L17.5 15.5H14.5L16 11Z" fill="#ffffff" /> <!-- North -->
  <path d="M16 21L14.5 16.5H17.5L16 21Z" fill="#E2E8F0" /> <!-- South -->
  <path d="M21 16L16.5 17.5V14.5L21 16Z" fill="#E2E8F0" /> <!-- East -->
  <path d="M11 16L15.5 14.5V17.5L11 16Z" fill="#ffffff" /> <!-- West -->
  
  <!-- Center dot -->
  <circle cx="16" cy="16" r="1" fill="#ffffff"/>
  
  <!-- Gradients -->
  <defs>
    <linearGradient id="bgGradient" x1="0" y1="0" x2="32" y2="32" gradientUnits="userSpaceOnUse">
      <stop offset="0%" stop-color="#0EA5E9"/> <!-- Sky blue -->
      <stop offset="100%" stop-color="#0D9488"/> <!-- Teal -->
    </linearGradient>
    <linearGradient id="compassGradient" x1="10" y1="10" x2="22" y2="22" gradientUnits="userSpaceOnUse">
      <stop offset="0%" stop-color="#14B8A6"/> <!-- Lighter teal -->
      <stop offset="100%" stop-color="#0891B2"/> <!-- Darker cyan -->
    </linearGradient>
  </defs>
  
  <!-- Add subtle animation -->
  <style>
    .compass {
      transform-origin: center;
      animation: pulse 2s ease-in-out infinite;
    }
    @keyframes pulse {
      0% { transform: scale(1); }
      50% { transform: scale(1.05); }
      100% { transform: scale(1); }
    }
  </style>
</svg>
